<svg xmlns="http://www.w3.org/2000/svg" viewBox="0 0 178 178"><defs><style>.cls-1,.cls-4{fill:#fff;}.cls-2,.cls-3{fill:none;}.cls-3{stroke:#fff;stroke-width:3px;}.cls-4{opacity:0;}</style></defs><g id="圖層_2" data-name="圖層 2"><g id="圖層_3" data-name="圖層 3"><path class="cls-1" d="M38,108a13.73,13.73,0,0,0-1.94.15,14.07,14.07,0,0,0-2.92.76,13.5,13.5,0,1,0,13.52,22.94,14.49,14.49,0,0,0,2.09-2.2A13.49,13.49,0,0,0,38,108Zm6.65,21.62a10.5,10.5,0,1,1-10.54-17.87,10.79,10.79,0,0,1,3-.71c.31,0,.62,0,.94,0a10.49,10.49,0,0,1,8.7,16.37A10.71,10.71,0,0,1,44.65,129.6Z"/><path class="cls-1" d="M113.43,14.27c-1-.32-2-.63-3.07-.92A27.65,27.65,0,0,0,108.65,16c1,.26,2,.54,3,.84A27.33,27.33,0,0,1,113.43,14.27Z"/><path class="cls-1" d="M95.81,11.17a.49.49,0,0,0-.15-.1c0-.05-.06-.11-.1-.15l-.16-.17L87.56,2.92A1.5,1.5,0,0,0,85.44,5l5.49,5.49c-.65,0-1.28,0-1.93,0A81,81,0,0,0,14.8,59a1.51,1.51,0,1,0,2.77,1.2A78.12,78.12,0,0,1,89,13.48c.78,0,1.55,0,2.32.06l-5.88,5.88a1.49,1.49,0,0,0,0,2.12,1.5,1.5,0,0,0,2.12,0l7.78-7.78.47-.47A1.49,1.49,0,0,0,95.81,11.17Z"/><path class="cls-1" d="M163.12,58.81a1.51,1.51,0,0,0-2.2-.64,1.5,1.5,0,0,0-.55,1.87A78,78,0,0,1,60.71,164.16l6.89-3.46a1.5,1.5,0,0,0,.66-2,1.49,1.49,0,0,0-2-.66l-9.17,4.61-1.25.63a1.49,1.49,0,0,0-.76,1.77,1.17,1.17,0,0,0,.09.24c0,.06.08.09.11.15a1.54,1.54,0,0,0,0,.17L60.4,175.7a1.51,1.51,0,0,0,2,.66,1.49,1.49,0,0,0,.66-2l-3.77-7.49a81,81,0,0,0,103.81-108Z"/><path class="cls-2" d="M47.52,54.66a2.39,2.39,0,0,0-.09.45L46.51,67.7a2.05,2.05,0,0,0,1.07,2,1.91,1.91,0,0,0,2.1-.15l7.23-5.39a4.92,4.92,0,0,1,3.63-.94l14.2,2a2,2,0,0,0,1.75-.66l12.7-14.46a2.2,2.2,0,0,0-.18-3l-5.65-5A5.13,5.13,0,0,1,82,36.44,55.42,55.42,0,0,0,47.52,54.66Z"/><path class="cls-3" d="M68,105.72l-5.65-5.86a5,5,0,0,1-.63-6.09l10.55-17a4.61,4.61,0,0,1,5.33-2l19,6a4.49,4.49,0,0,0,1.15.21l10.68.52a4.71,4.71,0,0,1,4.09,2.94l4.92,11.76a5,5,0,0,1-.14,4.19c-3.87,7.7-18.49,34.27-38.57,40a4.75,4.75,0,0,1-5.9-5.11C73.56,126.25,73.92,110.31,68,105.72Z"/><path class="cls-1" d="M158.14,39.48a1.51,1.51,0,0,0-1.37.9,25.24,25.24,0,0,1-2.07,3.75,26,26,0,0,1-1.92,2.51,25.47,25.47,0,0,1-17.73,8.79c-.51,0-1,0-1.55,0a24,24,0,0,1-2.41-.12,25.55,25.55,0,0,1-21-15.19,26.22,26.22,0,0,1-1.3-3.74,25.49,25.49,0,0,1,2.8-19.56c-1-.3-2-.58-3-.84A28.35,28.35,0,0,0,105,30a29,29,0,0,0,.51,5.38A58.37,58.37,0,0,0,89,33c-1.42,0-2.83.07-4.23.17-1.17.08-2.33.2-3.48.35a58.52,58.52,0,0,0-50.79,58,58.82,58.82,0,0,0,.43,7.06,24,24,0,0,0-16.15,16.89,23.66,23.66,0,0,0-.78,6c0,.22,0,.46,0,.69.77,13.66,24,45.31,24,45.31s2.56-3.49,6-8.65l1.67-2.53c3.22-4.94,6.92-10.93,10-16.77a58.49,58.49,0,0,0,81.48-81.29,28.42,28.42,0,0,0,17.39-9,27.74,27.74,0,0,0,2-2.45,28.15,28.15,0,0,0,3-5.19A1.5,1.5,0,0,0,158.14,39.48ZM47.43,55.11a2.39,2.39,0,0,1,.09-.45A55.42,55.42,0,0,1,82,36.44,5.13,5.13,0,0,0,83.36,42l5.65,5a2.2,2.2,0,0,1,.18,3L76.49,64.57a2,2,0,0,1-1.75.66l-14.2-2a4.92,4.92,0,0,0-3.63.94l-7.23,5.39a1.91,1.91,0,0,1-2.1.15,2.05,2.05,0,0,1-1.07-2ZM54.6,135c-.44.9-.91,1.82-1.39,2.75-2.94,5.64-6.6,11.64-10,16.84-.56.87-1.12,1.72-1.67,2.54-1.26,1.91-2.47,3.66-3.55,5.21a249.06,249.06,0,0,1-14.43-23.11c-3.76-7-6.57-13.63-6.57-17.73v0a21,21,0,0,1,14.38-19.9A21.51,21.51,0,0,1,38,100.48a21,21,0,0,1,21,21C59,124.74,57.22,129.6,54.6,135Zm89.74-47.66h-6A5.94,5.94,0,0,1,133,83.88l-7.47-16.17A1.5,1.5,0,0,0,122.77,69l7.46,16.16a8.94,8.94,0,0,0,8.12,5.19h6.13c0,.39,0,.77,0,1.16A55.46,55.46,0,0,1,57,136.81c2.91-5.91,5-11.46,5-15.33a24,24,0,0,0-24-24,24.61,24.61,0,0,0-4.14.36,55.49,55.49,0,0,1,10.29-39l-.64,8.64a5.09,5.09,0,0,0,2.63,4.88,5,5,0,0,0,2.38.62,4.91,4.91,0,0,0,2.95-1L58.7,66.6a1.89,1.89,0,0,1,1.43-.37l14.2,2a5,5,0,0,0,4.41-1.65l12.7-14.46A5.18,5.18,0,0,0,91,44.84l-5.66-5a2.21,2.21,0,0,1-.53-2.47,5.26,5.26,0,0,0,.34-1.2C86.43,36,87.71,36,89,36a55.28,55.28,0,0,1,17.39,2.8,28.51,28.51,0,0,0,27.11,19.7h.09A55.11,55.11,0,0,1,144.34,87.32Z"/><path class="cls-1" d="M133.5,1.48a28.45,28.45,0,0,0-23.14,11.87c1,.29,2.06.6,3.07.92a25.49,25.49,0,0,1,45.5,13.85,1.48,1.48,0,0,0,1.49,1.36,1.51,1.51,0,0,0,1.49-1.64A28.49,28.49,0,0,0,133.5,1.48Z"/><path class="cls-1" d="M135,27.92c-2.3-1.13-4.29-2.1-4.29-4.3A3,3,0,0,1,134,20.44a4.87,4.87,0,0,1,2.91.86,1.88,1.88,0,0,0,2.31-.07,1.79,1.79,0,0,0-.11-2.76,8.26,8.26,0,0,0-3.69-1.54V14.81a1.71,1.71,0,0,0-1.37-1.72,1.65,1.65,0,0,0-1.93,1.63V17a6.66,6.66,0,0,0-5.55,6.78c0,4.2,3.18,5.82,6,7.25,2.53,1.29,4.71,2.4,4.71,5,0,2.22-1.34,3.44-3.78,3.44a7.48,7.48,0,0,1-4.19-1.37,1.8,1.8,0,0,0-2.45.49h0a1.82,1.82,0,0,0,.51,2.59,12.45,12.45,0,0,0,4.77,1.8v2.11a1.71,1.71,0,0,0,1.37,1.72,1.65,1.65,0,0,0,1.93-1.63V43a6.86,6.86,0,0,0,5.92-7.08C141.37,31.05,138,29.38,135,27.92Z"/><path class="cls-1" d="M12.46,69.87a1.51,1.51,0,0,0-1.81,1.07A80.87,80.87,0,0,0,8,91.48c0,2.34.11,4.66.31,7a1.58,1.58,0,0,0,1.6,1.48,1.5,1.5,0,0,0,1.4-1.64c-.2-2.24-.31-4.5-.31-6.79a77.56,77.56,0,0,1,2.56-19.76,1.5,1.5,0,0,0-1.1-1.85Z"/><rect class="cls-4" width="178" height="178"/></g></g></svg>