<svg xmlns="http://www.w3.org/2000/svg" viewBox="0 0 178 178"><defs><style>.cls-1,.cls-2{fill:#fff;}.cls-2{opacity:0;}</style></defs><g id="圖層_2" data-name="圖層 2"><g id="圖層_3" data-name="圖層 3"><path class="cls-1" d="M176.33,78.45c-2.18-1.5-5.33-3.57-8.86-5.68,1.09-2.37,2-4.53,2.71-6.22a3.36,3.36,0,0,0-2.4-4.55,148.77,148.77,0,0,0-17.2-2.7,139,139,0,0,0,14.18-14.77,3.32,3.32,0,0,0-.9-5c-2.28-1.3-5.54-3.09-9.17-4.87.76-3.62,1.33-6.93,1.69-9.33a3.31,3.31,0,0,0-3.27-3.81H153c-2.81.07-6.88.25-11.26.67-2.58-3.54-5.12-6.68-6.92-8.84a3.39,3.39,0,0,0-5.21,0,152,152,0,0,0-10.58,14.17,155.39,155.39,0,0,0-1.11-15.94,3.32,3.32,0,0,0-3.29-2.92,3.27,3.27,0,0,0-1,.15c-2,.6-4.56,1.43-7.41,2.45-2.59-3.58-5.17-6.77-7-8.94a3.31,3.31,0,0,0-5.08,0c-2,2.35-4.83,5.9-7.63,9.85-2.75-1-5.24-1.81-7.19-2.43a3.88,3.88,0,0,0-1-.17,3.81,3.81,0,0,0-3.93,3.32c-.23,1.75-.49,3.93-.73,6.36-1.55-.7-3.06-1.31-4.5-1.83a33.69,33.69,0,0,0-8.3-2c-.56,0-1.1-.09-1.62-.09a15.33,15.33,0,0,0-2.09.15,4.77,4.77,0,0,0-4,4.28L52,33.4l-9.29,97.51c-1.21-6.36-3.49-16.63-6.07-19.83a11.5,11.5,0,1,0-17.9,14.44c2.29,2.84,10.09,6.64,16,9.22l-31.1,3a1.61,1.61,0,0,0-1,2.75L20.08,158a36.24,36.24,0,0,1-15.36,3.4c-1,0-1.94,0-2.89-.12a1.49,1.49,0,0,0-1.6,1.49h0a1.49,1.49,0,0,0,1.36,1.5c1,.08,2.07.13,3.13.13a39.27,39.27,0,0,0,17.61-4.15l6.31,6.31a32.83,32.83,0,0,1-12.84,7.41,1.51,1.51,0,0,0-1.08,1.44h0a1.5,1.5,0,0,0,2,1.43,36,36,0,0,0,14.1-8.15L38,175.87a1.62,1.62,0,0,0,2.75-1l2.55-26.78c1.3,5.18,3,10.48,4.72,12.6a11.37,11.37,0,0,0,7.78,4.11,10.14,10.14,0,0,0,1.1.06A11.5,11.5,0,0,0,65.72,146h0c-2.73-3.29-13-7.78-18.91-10.18l7-.66,91.3-8.7,13.44-1.28a4.86,4.86,0,0,0,4.36-4.16h0c.53-3.77-.57-8.84-3.06-14.79,3.14-1,5.93-2.08,8-2.88a3.3,3.3,0,0,0,1.63-4.81c-.87-1.43-2-3.22-3.3-5.19,4.3-3.59,8.2-7.38,10.66-9.87A3.31,3.31,0,0,0,176.33,78.45Zm-169.56,62,32.05-3c0,.12,0,.23,0,.34a36.67,36.67,0,0,1-16,18.81Zm24,24-5.67-5.67a39.72,39.72,0,0,0,14.09-14.52A32.83,32.83,0,0,1,30.74,164.38ZM38,171.67l-5.16-5.16A35.88,35.88,0,0,0,39.52,156Zm-17-48A8.5,8.5,0,0,1,34.26,113c2.28,2.84,4.71,14.31,5.88,20.85C34,131.28,23.31,126.47,21,123.63ZM167.15,64.94a.33.33,0,0,1,.24.17.35.35,0,0,1,0,.3c-.84,2-1.68,4-2.53,5.85-.43.93-.85,1.84-1.27,2.72-4.09,8.52-8.18,14.87-11.51,17.79A189.93,189.93,0,0,0,136.7,71.05l-2-2.29-1.9-2.17a18.31,18.31,0,0,0,2.35.16,19.4,19.4,0,0,0,2.93-.24l.54-.07a15.25,15.25,0,0,0,4.44-1.72,37,37,0,0,0,4.07-2.66A135.69,135.69,0,0,1,167.15,64.94Zm-4.78-22.81a.28.28,0,0,1,.15.22.29.29,0,0,1-.06.25A115.63,115.63,0,0,1,146.17,59a36.46,36.46,0,0,1-4.4,3,12.57,12.57,0,0,1-3.64,1.47,17.18,17.18,0,0,1-2.94.26c-.32,0-.62,0-.94,0a16.12,16.12,0,0,1-4.17-.79c-.28-.1-.57-.18-.85-.29l-.52-.55a21.06,21.06,0,0,0,2.09.31c.58,0,1.16.09,1.74.09A19.38,19.38,0,0,0,143.65,59a19,19,0,0,0,1.77-1.37c2.79-2.46,5-7.53,6.76-13.11.69-2.24,1.3-4.56,1.83-6.82C156.68,39,159.48,40.48,162.37,42.13ZM153.1,24.52h0a.32.32,0,0,1,.24.11.32.32,0,0,1,.07.25q-.69,4.46-1.53,8.45-.31,1.53-.66,3c-.11.48-.21,1-.33,1.44q-.37-1-.84-2c-.62-1.37-1.35-2.78-2.16-4.21-1.25-2.19-2.67-4.41-4.14-6.55C146.69,24.78,149.81,24.6,153.1,24.52ZM117.2,36.91c.06-.16.14-.32.21-.48a16.81,16.81,0,0,1,1.15-2.23c.11-.19.23-.4.34-.61,1.3-2.34,2.92-4.91,4.83-7.66,2.33-3.34,5.09-6.93,8.2-10.66a.39.39,0,0,1,.3-.14.4.4,0,0,1,.31.14q3.14,3.77,5.77,7.3c.7.95,1.38,1.88,2,2.79q1.65,2.34,3,4.5t2.43,4.1c2.22,4.07,3.45,7.42,3.45,9.68,0,.08,0,.15,0,.23-1.79,5.67-3.78,9.73-5.77,11.48a16.44,16.44,0,0,1-19.68,1.57l-1.13-1.15q-2-2-3.95-3.86a16.29,16.29,0,0,1-2.11-4.83,16.05,16.05,0,0,1-.35-1.81,14.78,14.78,0,0,1-.15-1.62A16.56,16.56,0,0,1,117.2,36.91Zm-9.14-23.1c2.07-.73,4.23-1.44,6.5-2.13l.09,0a.32.32,0,0,1,.31.28A134.71,134.71,0,0,1,116,29.74a11,11,0,0,1,.23,2.13c0,.07,0,.13,0,.19-.08-.21-.17-.41-.26-.62a21.59,21.59,0,0,0-1.8-3.47,16.07,16.07,0,0,0-3.28-3.58,55.52,55.52,0,0,0-11.76-7.07c1.85-.82,3.86-1.64,6-2.45C106.09,14.52,107.06,14.16,108.06,13.81Zm7.87,18.91h0l0,.08ZM96.51,4.24a.28.28,0,0,1,.24-.11.31.31,0,0,1,.24.11q3.51,4.2,6.35,8.11c-2.59,1-5.29,2.1-7.85,3.32-2-.87-4-1.68-6-2.41C91.55,10.39,93.89,7.37,96.51,4.24ZM77.74,13.32a.51.51,0,0,1,.52-.45.31.31,0,0,1,.13,0q3.26,1,6.25,2.09l2.92,1c1.41.53,2.78,1.06,4.09,1.6s2.44,1,3.59,1.52c8.39,3.69,14.12,7.4,16.15,10.59a19.43,19.43,0,0,1,2.71,6.91,19.2,19.2,0,0,0-1,5.86,18.7,18.7,0,0,0,0,2c.05.59.12,1.19.22,1.77,0,.27.08.54.14.81l-.34-.3-1.06-1-1-.83-2.26-2a190.9,190.9,0,0,0-23-17.15c-.87-.54-1.72-1.06-2.57-1.56L82.79,24c-.88-.52-1.76-1-2.62-1.5-1.1-.61-2.19-1.19-3.26-1.72C77.13,18.38,77.4,15.9,77.74,13.32ZM63.41,147.94h0a8.5,8.5,0,1,1-13.09,10.85C48,156,45.5,144.92,44.22,138.35l0-.29C50.44,140.52,61.1,145.15,63.41,147.94ZM53.1,132.24l-7.62.73,8.9-93.5L55,33l1.35-14.19v-.07l0,.05a8.87,8.87,0,0,1,2.91-.44c.3,0,.62,0,.94,0a29,29,0,0,1,7.51,1.69,66.12,66.12,0,0,1,5.52,4.78q1.6,1.58,3.12,3.25c.38.43.75.88,1.13,1.32,1,1.12,1.89,2.27,2.77,3.45h0q1.64,2.19,3.08,4.52a66.23,66.23,0,0,1,4.34,8.26c.17.39.35.78.52,1.18.42,1,.81,2,1.18,3.09.23.66.47,1.33.69,2a64.19,64.19,0,0,1,1.82,7c.23,1.13.43,2.27.6,3.43a66.22,66.22,0,0,1,.69,9.51A65.59,65.59,0,0,1,53.1,132.24ZM160,118.17a9.73,9.73,0,0,1-.38,3.86l.06.06h-.1l-14.16,1.35-6.44.61-77.57,7.39A68.54,68.54,0,0,0,96.22,71.86a67.14,67.14,0,0,0-.66-9.35c-.15-1.11-.33-2.22-.53-3.31-.36-1.93-.82-3.82-1.34-5.69-.23-.85-.51-1.68-.77-2.52-.13-.38-.23-.77-.36-1.15-.26-.75-.53-1.5-.81-2.24a68.44,68.44,0,0,0-8.32-15.51c-.74-1-1.51-2.06-2.31-3.05-.1-.12-.2-.23-.29-.35-.73-.9-1.49-1.78-2.26-2.64-.63-.69-1.26-1.38-1.91-2.05.74.38,1.49.79,2.25,1.21s1.74,1,2.63,1.51l.39.22c.85.5,1.71,1,2.58,1.57l.62.39a187.32,187.32,0,0,1,21.51,16.15c.77.66,1.54,1.34,2.31,2,.32.29.64.56,1,.84l1.92,1.72.33.31,2.15,2c.7.66,1.4,1.3,2.1,2,.25.24.52.48.77.73l-.33-.86h0l.33.86c1.12,1.08,2.23,2.16,3.33,3.26.46.47.92.93,1.37,1.4h0l.29.17-.29-.17c1.91,1.93,3.77,3.88,5.58,5.83l.16.18,2,2.22q1.5,1.67,2.94,3.33c.67.77,1.31,1.53,2,2.3a185,185,0,0,1,15,20.24c.54.86,1.08,1.72,1.58,2.57s1.15,2,1.69,2.91c.24.43.48.85.7,1.27s.5.92.74,1.38c.5,1,1,1.92,1.44,2.9s.84,1.84,1.23,2.76A36.69,36.69,0,0,1,160,118.17Zm6.87-18a.3.3,0,0,1,0,.27.36.36,0,0,1-.18.19c-2.82,1.09-5.54,2.07-8.14,2.92-.52-1.11-1.08-2.25-1.69-3.41a66.09,66.09,0,0,0,6.9-4.82C164.84,96.83,165.87,98.44,166.9,100.13Zm7.78-18.73c-3.56,3.61-7,6.79-10.21,9.47-.8.67-1.57,1.3-2.34,1.9a62.72,62.72,0,0,1-6.66,4.66c-.57-1-1.16-2-1.79-3.09,4.59-3.76,9.14-11.82,12.52-18.84,2.68,1.6,5.51,3.42,8.44,5.43a.27.27,0,0,1,.13.22A.28.28,0,0,1,174.68,81.4Z"/><rect class="cls-2" width="178" height="178"/></g></g></svg>