<svg xmlns="http://www.w3.org/2000/svg" viewBox="0 0 178 178"><defs><style>.cls-1,.cls-3{fill:#fff;}.cls-2{fill:none;stroke:#fff;stroke-linejoin:round;stroke-width:3px;}.cls-3{opacity:0;}</style></defs><g id="圖層_2" data-name="圖層 2"><g id="圖層_3" data-name="圖層 3"><path class="cls-1" d="M175,89a56.78,56.78,0,0,1-15.16,38.65,1.51,1.51,0,0,0,0,2.1h0a1.52,1.52,0,0,0,2.18,0,59.95,59.95,0,0,0,.48-80.91,1.52,1.52,0,0,0-2.18,0h0a1.5,1.5,0,0,0,0,2.09A56.77,56.77,0,0,1,175,89Z"/><path class="cls-1" d="M161,89a42.81,42.81,0,0,1-11.07,28.75,1.52,1.52,0,0,0,0,2.1h0a1.51,1.51,0,0,0,2.17,0,46,46,0,0,0,.49-61.07,1.51,1.51,0,0,0-2.19-.06h0a1.52,1.52,0,0,0-.05,2.08A42.81,42.81,0,0,1,161,89Z"/><path class="cls-1" d="M146,89a27.85,27.85,0,0,1-6.75,18.2,1.49,1.49,0,0,0,.09,2h0a1.51,1.51,0,0,0,2.23-.1,31,31,0,0,0,.48-39.68,1.5,1.5,0,0,0-2.24-.12h0a1.48,1.48,0,0,0-.11,2A27.9,27.9,0,0,1,146,89Z"/><rect class="cls-1" x="111.31" y="88.75" width="1.5" height="1.5" transform="translate(-30.46 105.45) rotate(-45)"/><path class="cls-1" d="M103,3a5,5,0,0,1,5,5V170a5,5,0,0,1-5,5H8a5,5,0,0,1-5-5V8A5,5,0,0,1,8,3h95m0-3H8A8,8,0,0,0,0,8V170a8,8,0,0,0,8,8h95a8,8,0,0,0,8-8V8a8,8,0,0,0-8-8Z"/><line class="cls-2" x1="2" y1="34.5" x2="110" y2="34.5"/><line class="cls-2" x1="2.5" y1="146.5" x2="110.5" y2="146.5"/><circle class="cls-2" cx="55.5" cy="17.75" r="1.5"/><rect class="cls-1" x="46" y="160" width="19" height="3" rx="1.5"/><path class="cls-1" d="M56.44,87.94c-4.38-2.14-8.15-4-8.15-9a6.77,6.77,0,0,1,7-7,9.05,9.05,0,0,1,6.57,2.42,1.84,1.84,0,0,0,2.27.11,1.78,1.78,0,0,0,.13-2.71A12.58,12.58,0,0,0,57,68.54V63.93a1.8,1.8,0,0,0-1.44-1.81,1.75,1.75,0,0,0-2,1.71v4.76a10.37,10.37,0,0,0-9.18,10.54c0,6.94,5,9.44,9.75,11.85,4.63,2.33,9,4.52,9,10.57,0,4.67-3,7.46-7.9,7.46a14,14,0,0,1-8.35-3,1.8,1.8,0,0,0-2.51.35h0a1.77,1.77,0,0,0,.35,2.49,18.32,18.32,0,0,0,8.85,3.58v4.62A1.81,1.81,0,0,0,55,118.88a1.74,1.74,0,0,0,2-1.71v-4.74c6-.73,10-5.08,10-11.08C67,93.11,61.4,90.36,56.44,87.94Z"/><path class="cls-1" d="M55.5,132A41.5,41.5,0,1,1,97,90.5,41.55,41.55,0,0,1,55.5,132Zm0-80A38.5,38.5,0,1,0,94,90.5,38.54,38.54,0,0,0,55.5,52Z"/><rect class="cls-3" width="178" height="178"/></g></g></svg>