<svg xmlns="http://www.w3.org/2000/svg" viewBox="0 0 178 178"><defs><style>.cls-1{fill:none;}.cls-2,.cls-3{fill:#fff;}.cls-3{opacity:0;}</style></defs><g id="圖層_2" data-name="圖層 2"><g id="圖層_3" data-name="圖層 3"><polygon class="cls-1" points="120 42.75 120 77.75 173.34 77.75 144.79 42.75 120 42.75"/><rect class="cls-2" x="9" y="54.75" width="58" height="3" rx="1.5"/><rect class="cls-2" x="9" y="98.75" width="37.5" height="3" rx="1.5"/><rect class="cls-2" y="77.75" width="59.5" height="3" rx="1.5"/><path class="cls-1" d="M23,126.75H16.5v.5H38.08a20,20,0,0,1,39.84,0h36.16a20,20,0,0,1,39.84,0H175v-46H117v-49H16.5v.5H23Z"/><path class="cls-1" d="M58,111.75a17,17,0,0,0-16.92,15.5,14.1,14.1,0,0,0,0,3,17,17,0,0,0,33.84,0,14.1,14.1,0,0,0,0-3A17,17,0,0,0,58,111.75Z"/><polygon class="cls-1" points="120 42.75 120 77.75 173.34 77.75 144.79 42.75 120 42.75"/><path class="cls-1" d="M134,111.75a17,17,0,0,0-16.92,15.5,14.1,14.1,0,0,0,0,3,17,17,0,0,0,33.84,0,14.1,14.1,0,0,0,0-3A17,17,0,0,0,134,111.75Z"/><path class="cls-1" d="M58,111.75a17,17,0,0,0-16.92,15.5,14.1,14.1,0,0,0,0,3,17,17,0,0,0,33.84,0,14.1,14.1,0,0,0,0-3A17,17,0,0,0,58,111.75Z"/><path class="cls-1" d="M134,111.75a17,17,0,0,0-16.92,15.5,14.1,14.1,0,0,0,0,3,17,17,0,0,0,33.84,0,14.1,14.1,0,0,0,0-3A17,17,0,0,0,134,111.75Z"/><polygon class="cls-1" points="120 42.75 120 77.75 173.34 77.75 144.79 42.75 120 42.75"/><path class="cls-1" d="M134,111.75a17,17,0,0,0-16.92,15.5,14.1,14.1,0,0,0,0,3,17,17,0,0,0,33.84,0,14.1,14.1,0,0,0,0-3A17,17,0,0,0,134,111.75Z"/><path class="cls-1" d="M58,111.75a17,17,0,0,0-16.92,15.5,14.1,14.1,0,0,0,0,3,17,17,0,0,0,33.84,0,14.1,14.1,0,0,0,0-3A17,17,0,0,0,58,111.75Z"/><polygon class="cls-1" points="120 42.75 120 77.75 173.34 77.75 144.79 42.75 120 42.75"/><path class="cls-2" d="M144.64,39.75H120V31.66a2.41,2.41,0,0,0-2.41-2.41H15a1.5,1.5,0,0,0-1.5,1.5h0a1.5,1.5,0,0,0,1.5,1.5H117v49h58v46H153.92a20,20,0,0,0-39.84,0H77.92a20,20,0,0,0-39.84,0H15a1.5,1.5,0,0,0-1.5,1.5h0a1.5,1.5,0,0,0,1.5,1.5H38.08a20,20,0,0,0,39.84,0h36.16a20,20,0,0,0,39.84,0h21.77a2.3,2.3,0,0,0,2.31-2.31V80a6.08,6.08,0,0,0-1.41-3.89L147.22,41A3.34,3.34,0,0,0,144.64,39.75ZM120,77.75v-35h24.79l28.55,35Zm-45.08,52.5a17,17,0,0,1-33.84,0,14.1,14.1,0,0,1,0-3,17,17,0,0,1,33.84,0,14.1,14.1,0,0,1,0,3Zm76,0a17,17,0,0,1-33.84,0,14.1,14.1,0,0,1,0-3,17,17,0,0,1,33.84,0,14.1,14.1,0,0,1,0,3Z"/><rect class="cls-3" width="178" height="178"/></g></g></svg>